<?xml version="1.0" encoding="utf-8" standalone="no"?>
<!DOCTYPE svg PUBLIC "-//W3C//DTD SVG 1.1//EN"
  "http://www.w3.org/Graphics/SVG/1.1/DTD/svg11.dtd">
<svg height="2880pt" version="1.1" viewBox="0 0 5760 2880" width="5760pt" xmlns="http://www.w3.org/2000/svg" xmlns:xlink="http://www.w3.org/1999/xlink">
 <metadata>
  <rdf:RDF xmlns:cc="http://creativecommons.org/ns#" xmlns:dc="http://purl.org/dc/elements/1.1/" xmlns:rdf="http://www.w3.org/1999/02/22-rdf-syntax-ns#">
   <cc:Work>
    <dc:type rdf:resource="http://purl.org/dc/dcmitype/StillImage"/>
    <dc:date>2021-10-02T12:39:04.231257</dc:date>
    <dc:format>image/svg+xml</dc:format>
    <dc:creator>
     <cc:Agent>
      <dc:title>Matplotlib v3.4.3, https://matplotlib.org/</dc:title>
     </cc:Agent>
    </dc:creator>
   </cc:Work>
  </rdf:RDF>
 </metadata>
 <defs>
  <style type="text/css">*{stroke-linecap:butt;stroke-linejoin:round;}</style>
 </defs>
 <g id="figure_1">
  <g id="patch_1">
   <path d="M 0 2880 
L 5760 2880 
L 5760 0 
L 0 0 
z
" style="fill:#ffffff;"/>
  </g>
  <g id="axes_1">
   <g id="patch_2">
    <path d="M 720 2563.2 
L 5184 2563.2 
L 5184 345.6 
L 720 345.6 
z
" style="fill:#ffffff;"/>
   </g>
   <g id="matplotlib.axis_1">
    <g id="xtick_1"/>
    <g id="xtick_2"/>
    <g id="xtick_3"/>
    <g id="xtick_4"/>
    <g id="xtick_5"/>
    <g id="xtick_6"/>
    <g id="xtick_7"/>
    <g id="xtick_8"/>
    <g id="xtick_9"/>
    <g id="xtick_10"/>
    <g id="xtick_11"/>
    <g id="xtick_12"/>
    <g id="xtick_13"/>
    <g id="xtick_14"/>
    <g id="xtick_15"/>
    <g id="xtick_16"/>
    <g id="xtick_17"/>
    <g id="xtick_18"/>
    <g id="xtick_19"/>
    <g id="xtick_20"/>
    <g id="xtick_21"/>
    <g id="xtick_22"/>
    <g id="xtick_23"/>
    <g id="xtick_24"/>
    <g id="xtick_25"/>
    <g id="xtick_26"/>
    <g id="xtick_27"/>
    <g id="xtick_28"/>
    <g id="xtick_29"/>
    <g id="xtick_30"/>
    <g id="xtick_31"/>
    <g id="xtick_32"/>
    <g id="xtick_33"/>
    <g id="xtick_34"/>
    <g id="xtick_35"/>
    <g id="xtick_36"/>
    <g id="xtick_37"/>
    <g id="xtick_38"/>
    <g id="xtick_39"/>
    <g id="xtick_40"/>
    <g id="xtick_41"/>
    <g id="xtick_42"/>
    <g id="xtick_43"/>
    <g id="xtick_44"/>
    <g id="xtick_45"/>
    <g id="xtick_46"/>
    <g id="xtick_47"/>
    <g id="xtick_48"/>
    <g id="xtick_49"/>
    <g id="xtick_50"/>
    <g id="xtick_51"/>
    <g id="xtick_52"/>
    <g id="xtick_53"/>
    <g id="xtick_54"/>
    <g id="xtick_55"/>
    <g id="xtick_56"/>
    <g id="xtick_57"/>
    <g id="xtick_58"/>
    <g id="xtick_59"/>
    <g id="xtick_60"/>
    <g id="xtick_61"/>
    <g id="xtick_62"/>
    <g id="xtick_63"/>
    <g id="xtick_64"/>
    <g id="xtick_65"/>
    <g id="xtick_66"/>
    <g id="xtick_67"/>
    <g id="xtick_68"/>
    <g id="xtick_69"/>
    <g id="xtick_70"/>
    <g id="xtick_71"/>
    <g id="xtick_72"/>
    <g id="xtick_73"/>
    <g id="xtick_74"/>
    <g id="xtick_75"/>
    <g id="xtick_76"/>
    <g id="xtick_77"/>
    <g id="xtick_78"/>
    <g id="xtick_79"/>
    <g id="xtick_80"/>
    <g id="xtick_81"/>
    <g id="xtick_82"/>
    <g id="xtick_83"/>
    <g id="xtick_84"/>
    <g id="xtick_85"/>
    <g id="xtick_86"/>
    <g id="xtick_87"/>
    <g id="xtick_88"/>
    <g id="xtick_89"/>
    <g id="xtick_90"/>
    <g id="xtick_91"/>
    <g id="xtick_92"/>
    <g id="xtick_93"/>
    <g id="xtick_94"/>
    <g id="xtick_95"/>
    <g id="xtick_96"/>
    <g id="xtick_97"/>
    <g id="xtick_98"/>
    <g id="xtick_99"/>
    <g id="xtick_100"/>
    <g id="xtick_101"/>
    <g id="xtick_102"/>
    <g id="xtick_103"/>
    <g id="xtick_104"/>
    <g id="xtick_105"/>
    <g id="xtick_106"/>
    <g id="xtick_107"/>
    <g id="xtick_108"/>
    <g id="xtick_109"/>
    <g id="xtick_110"/>
    <g id="xtick_111"/>
    <g id="xtick_112"/>
    <g id="xtick_113"/>
    <g id="xtick_114"/>
    <g id="xtick_115"/>
    <g id="xtick_116"/>
    <g id="xtick_117"/>
    <g id="xtick_118"/>
    <g id="xtick_119"/>
    <g id="xtick_120"/>
    <g id="xtick_121"/>
    <g id="xtick_122"/>
    <g id="xtick_123"/>
    <g id="xtick_124"/>
    <g id="xtick_125"/>
    <g id="xtick_126"/>
    <g id="xtick_127"/>
    <g id="xtick_128"/>
    <g id="xtick_129"/>
    <g id="xtick_130"/>
    <g id="xtick_131"/>
    <g id="xtick_132"/>
    <g id="xtick_133"/>
    <g id="xtick_134"/>
    <g id="xtick_135"/>
    <g id="xtick_136"/>
    <g id="xtick_137"/>
    <g id="xtick_138"/>
    <g id="xtick_139"/>
    <g id="xtick_140"/>
    <g id="xtick_141"/>
    <g id="xtick_142"/>
    <g id="xtick_143"/>
    <g id="xtick_144"/>
   </g>
   <g id="matplotlib.axis_2">
    <g id="ytick_1">
     <g id="line2d_1">
      <defs>
       <path d="M 0 0 
L -3.5 0 
" id="m587142080b" style="stroke:#000000;stroke-width:0.8;"/>
      </defs>
      <g>
       <use style="stroke:#000000;stroke-width:0.8;" x="720" xlink:href="#m587142080b" y="2563.2"/>
      </g>
     </g>
     <g id="text_1">
      <!-- 0.0 -->
      <g transform="translate(697.096875 2566.999219)scale(0.1 -0.1)">
       <defs>
        <path d="M 2034 4250 
Q 1547 4250 1301 3770 
Q 1056 3291 1056 2328 
Q 1056 1369 1301 889 
Q 1547 409 2034 409 
Q 2525 409 2770 889 
Q 3016 1369 3016 2328 
Q 3016 3291 2770 3770 
Q 2525 4250 2034 4250 
z
M 2034 4750 
Q 2819 4750 3233 4129 
Q 3647 3509 3647 2328 
Q 3647 1150 3233 529 
Q 2819 -91 2034 -91 
Q 1250 -91 836 529 
Q 422 1150 422 2328 
Q 422 3509 836 4129 
Q 1250 4750 2034 4750 
z
" id="DejaVuSans-30" transform="scale(0.015625)"/>
        <path d="M 684 794 
L 1344 794 
L 1344 0 
L 684 0 
L 684 794 
z
" id="DejaVuSans-2e" transform="scale(0.015625)"/>
       </defs>
       <use xlink:href="#DejaVuSans-30"/>
       <use x="63.623047" xlink:href="#DejaVuSans-2e"/>
       <use x="95.410156" xlink:href="#DejaVuSans-30"/>
      </g>
     </g>
    </g>
    <g id="ytick_2">
     <g id="line2d_2">
      <g>
       <use style="stroke:#000000;stroke-width:0.8;" x="720" xlink:href="#m587142080b" y="2276.401369"/>
      </g>
     </g>
     <g id="text_2">
      <!-- 2.5 -->
      <g transform="translate(697.096875 2280.200588)scale(0.1 -0.1)">
       <defs>
        <path d="M 1228 531 
L 3431 531 
L 3431 0 
L 469 0 
L 469 531 
Q 828 903 1448 1529 
Q 2069 2156 2228 2338 
Q 2531 2678 2651 2914 
Q 2772 3150 2772 3378 
Q 2772 3750 2511 3984 
Q 2250 4219 1831 4219 
Q 1534 4219 1204 4116 
Q 875 4013 500 3803 
L 500 4441 
Q 881 4594 1212 4672 
Q 1544 4750 1819 4750 
Q 2544 4750 2975 4387 
Q 3406 4025 3406 3419 
Q 3406 3131 3298 2873 
Q 3191 2616 2906 2266 
Q 2828 2175 2409 1742 
Q 1991 1309 1228 531 
z
" id="DejaVuSans-32" transform="scale(0.015625)"/>
        <path d="M 691 4666 
L 3169 4666 
L 3169 4134 
L 1269 4134 
L 1269 2991 
Q 1406 3038 1543 3061 
Q 1681 3084 1819 3084 
Q 2600 3084 3056 2656 
Q 3513 2228 3513 1497 
Q 3513 744 3044 326 
Q 2575 -91 1722 -91 
Q 1428 -91 1123 -41 
Q 819 9 494 109 
L 494 744 
Q 775 591 1075 516 
Q 1375 441 1709 441 
Q 2250 441 2565 725 
Q 2881 1009 2881 1497 
Q 2881 1984 2565 2268 
Q 2250 2553 1709 2553 
Q 1456 2553 1204 2497 
Q 953 2441 691 2322 
L 691 4666 
z
" id="DejaVuSans-35" transform="scale(0.015625)"/>
       </defs>
       <use xlink:href="#DejaVuSans-32"/>
       <use x="63.623047" xlink:href="#DejaVuSans-2e"/>
       <use x="95.410156" xlink:href="#DejaVuSans-35"/>
      </g>
     </g>
    </g>
    <g id="ytick_3">
     <g id="line2d_3">
      <g>
       <use style="stroke:#000000;stroke-width:0.8;" x="720" xlink:href="#m587142080b" y="1989.602739"/>
      </g>
     </g>
     <g id="text_3">
      <!-- 5.0 -->
      <g transform="translate(697.096875 1993.401958)scale(0.1 -0.1)">
       <use xlink:href="#DejaVuSans-35"/>
       <use x="63.623047" xlink:href="#DejaVuSans-2e"/>
       <use x="95.410156" xlink:href="#DejaVuSans-30"/>
      </g>
     </g>
    </g>
    <g id="ytick_4">
     <g id="line2d_4">
      <g>
       <use style="stroke:#000000;stroke-width:0.8;" x="720" xlink:href="#m587142080b" y="1702.804108"/>
      </g>
     </g>
     <g id="text_4">
      <!-- 7.5 -->
      <g transform="translate(697.096875 1706.603327)scale(0.1 -0.1)">
       <defs>
        <path d="M 525 4666 
L 3525 4666 
L 3525 4397 
L 1831 0 
L 1172 0 
L 2766 4134 
L 525 4134 
L 525 4666 
z
" id="DejaVuSans-37" transform="scale(0.015625)"/>
       </defs>
       <use xlink:href="#DejaVuSans-37"/>
       <use x="63.623047" xlink:href="#DejaVuSans-2e"/>
       <use x="95.410156" xlink:href="#DejaVuSans-35"/>
      </g>
     </g>
    </g>
    <g id="ytick_5">
     <g id="line2d_5">
      <g>
       <use style="stroke:#000000;stroke-width:0.8;" x="720" xlink:href="#m587142080b" y="1416.005478"/>
      </g>
     </g>
     <g id="text_5">
      <!-- 10.0 -->
      <g transform="translate(690.734375 1419.804697)scale(0.1 -0.1)">
       <defs>
        <path d="M 794 531 
L 1825 531 
L 1825 4091 
L 703 3866 
L 703 4441 
L 1819 4666 
L 2450 4666 
L 2450 531 
L 3481 531 
L 3481 0 
L 794 0 
L 794 531 
z
" id="DejaVuSans-31" transform="scale(0.015625)"/>
       </defs>
       <use xlink:href="#DejaVuSans-31"/>
       <use x="63.623047" xlink:href="#DejaVuSans-30"/>
       <use x="127.246094" xlink:href="#DejaVuSans-2e"/>
       <use x="159.033203" xlink:href="#DejaVuSans-30"/>
      </g>
     </g>
    </g>
    <g id="ytick_6">
     <g id="line2d_6">
      <g>
       <use style="stroke:#000000;stroke-width:0.8;" x="720" xlink:href="#m587142080b" y="1129.206847"/>
      </g>
     </g>
     <g id="text_6">
      <!-- 12.5 -->
      <g transform="translate(690.734375 1133.006066)scale(0.1 -0.1)">
       <use xlink:href="#DejaVuSans-31"/>
       <use x="63.623047" xlink:href="#DejaVuSans-32"/>
       <use x="127.246094" xlink:href="#DejaVuSans-2e"/>
       <use x="159.033203" xlink:href="#DejaVuSans-35"/>
      </g>
     </g>
    </g>
    <g id="ytick_7">
     <g id="line2d_7">
      <g>
       <use style="stroke:#000000;stroke-width:0.8;" x="720" xlink:href="#m587142080b" y="842.408217"/>
      </g>
     </g>
     <g id="text_7">
      <!-- 15.0 -->
      <g transform="translate(690.734375 846.207436)scale(0.1 -0.1)">
       <use xlink:href="#DejaVuSans-31"/>
       <use x="63.623047" xlink:href="#DejaVuSans-35"/>
       <use x="127.246094" xlink:href="#DejaVuSans-2e"/>
       <use x="159.033203" xlink:href="#DejaVuSans-30"/>
      </g>
     </g>
    </g>
    <g id="ytick_8">
     <g id="line2d_8">
      <g>
       <use style="stroke:#000000;stroke-width:0.8;" x="720" xlink:href="#m587142080b" y="555.609586"/>
      </g>
     </g>
     <g id="text_8">
      <!-- 17.5 -->
      <g transform="translate(690.734375 559.408805)scale(0.1 -0.1)">
       <use xlink:href="#DejaVuSans-31"/>
       <use x="63.623047" xlink:href="#DejaVuSans-37"/>
       <use x="127.246094" xlink:href="#DejaVuSans-2e"/>
       <use x="159.033203" xlink:href="#DejaVuSans-35"/>
      </g>
     </g>
    </g>
   </g>
   <g id="LineCollection_1">
    <path clip-path="url(#p58681ba879)" d="M 766.5 2563.2 
L 766.5 2311.533035 
L 797.5 2311.533035 
L 797.5 2563.2 
" style="fill:none;stroke:#ff7f0e;stroke-width:1.5;"/>
    <path clip-path="url(#p58681ba879)" d="M 3277.5 2563.2 
L 3277.5 1986.598164 
L 3308.5 1986.598164 
L 3308.5 2563.2 
" style="fill:none;stroke:#ff7f0e;stroke-width:1.5;"/>
    <path clip-path="url(#p58681ba879)" d="M 3432.5 2563.2 
L 3432.5 1859.312516 
L 3463.5 1859.312516 
L 3463.5 2563.2 
" style="fill:none;stroke:#ff7f0e;stroke-width:1.5;"/>
    <path clip-path="url(#p58681ba879)" d="M 3401.5 2563.2 
L 3401.5 1694.095454 
L 3448 1694.095454 
L 3448 1859.312516 
" style="fill:none;stroke:#ff7f0e;stroke-width:1.5;"/>
    <path clip-path="url(#p58681ba879)" d="M 3370.5 2563.2 
L 3370.5 1668.908925 
L 3424.75 1668.908925 
L 3424.75 1694.095454 
" style="fill:none;stroke:#ff7f0e;stroke-width:1.5;"/>
    <path clip-path="url(#p58681ba879)" d="M 3339.5 2563.2 
L 3339.5 1522.342145 
L 3397.625 1522.342145 
L 3397.625 1668.908925 
" style="fill:none;stroke:#ff7f0e;stroke-width:1.5;"/>
    <path clip-path="url(#p58681ba879)" d="M 3293 1986.598164 
L 3293 1373.125367 
L 3368.5625 1373.125367 
L 3368.5625 1522.342145 
" style="fill:none;stroke:#ff7f0e;stroke-width:1.5;"/>
   </g>
   <g id="LineCollection_2">
    <path clip-path="url(#p58681ba879)" d="M 859.5 2563.2 
L 859.5 2096.345898 
L 890.5 2096.345898 
L 890.5 2563.2 
" style="fill:none;stroke:#2ca02c;stroke-width:1.5;"/>
    <path clip-path="url(#p58681ba879)" d="M 828.5 2563.2 
L 828.5 2011.244468 
L 875 2011.244468 
L 875 2096.345898 
" style="fill:none;stroke:#2ca02c;stroke-width:1.5;"/>
    <path clip-path="url(#p58681ba879)" d="M 3494.5 2563.2 
L 3494.5 2090.862286 
L 3525.5 2090.862286 
L 3525.5 2563.2 
" style="fill:none;stroke:#2ca02c;stroke-width:1.5;"/>
    <path clip-path="url(#p58681ba879)" d="M 3680.5 2563.2 
L 3680.5 2143.759295 
L 3711.5 2143.759295 
L 3711.5 2563.2 
" style="fill:none;stroke:#2ca02c;stroke-width:1.5;"/>
    <path clip-path="url(#p58681ba879)" d="M 3649.5 2563.2 
L 3649.5 2070.083473 
L 3696 2070.083473 
L 3696 2143.759295 
" style="fill:none;stroke:#2ca02c;stroke-width:1.5;"/>
    <path clip-path="url(#p58681ba879)" d="M 3618.5 2563.2 
L 3618.5 2012.310943 
L 3672.75 2012.310943 
L 3672.75 2070.083473 
" style="fill:none;stroke:#2ca02c;stroke-width:1.5;"/>
    <path clip-path="url(#p58681ba879)" d="M 3587.5 2563.2 
L 3587.5 1751.756168 
L 3645.625 1751.756168 
L 3645.625 2012.310943 
" style="fill:none;stroke:#2ca02c;stroke-width:1.5;"/>
    <path clip-path="url(#p58681ba879)" d="M 3556.5 2563.2 
L 3556.5 1196.51151 
L 3616.5625 1196.51151 
L 3616.5625 1751.756168 
" style="fill:none;stroke:#2ca02c;stroke-width:1.5;"/>
    <path clip-path="url(#p58681ba879)" d="M 3773.5 2563.2 
L 3773.5 1978.791193 
L 3804.5 1978.791193 
L 3804.5 2563.2 
" style="fill:none;stroke:#2ca02c;stroke-width:1.5;"/>
    <path clip-path="url(#p58681ba879)" d="M 3742.5 2563.2 
L 3742.5 1593.676887 
L 3789 1593.676887 
L 3789 1978.791193 
" style="fill:none;stroke:#2ca02c;stroke-width:1.5;"/>
    <path clip-path="url(#p58681ba879)" d="M 3928.5 2563.2 
L 3928.5 1817.932095 
L 3959.5 1817.932095 
L 3959.5 2563.2 
" style="fill:none;stroke:#2ca02c;stroke-width:1.5;"/>
    <path clip-path="url(#p58681ba879)" d="M 3897.5 2563.2 
L 3897.5 1675.367176 
L 3944 1675.367176 
L 3944 1817.932095 
" style="fill:none;stroke:#2ca02c;stroke-width:1.5;"/>
    <path clip-path="url(#p58681ba879)" d="M 3990.5 2563.2 
L 3990.5 1946.691678 
L 4021.5 1946.691678 
L 4021.5 2563.2 
" style="fill:none;stroke:#2ca02c;stroke-width:1.5;"/>
    <path clip-path="url(#p58681ba879)" d="M 4114.5 2563.2 
L 4114.5 2540.620166 
L 4145.5 2540.620166 
L 4145.5 2563.2 
" style="fill:none;stroke:#2ca02c;stroke-width:1.5;"/>
    <path clip-path="url(#p58681ba879)" d="M 4083.5 2563.2 
L 4083.5 2062.845408 
L 4130 2062.845408 
L 4130 2540.620166 
" style="fill:none;stroke:#2ca02c;stroke-width:1.5;"/>
    <path clip-path="url(#p58681ba879)" d="M 4176.5 2563.2 
L 4176.5 2043.371496 
L 4207.5 2043.371496 
L 4207.5 2563.2 
" style="fill:none;stroke:#2ca02c;stroke-width:1.5;"/>
    <path clip-path="url(#p58681ba879)" d="M 4106.75 2062.845408 
L 4106.75 1940.363651 
L 4192 1940.363651 
L 4192 2043.371496 
" style="fill:none;stroke:#2ca02c;stroke-width:1.5;"/>
    <path clip-path="url(#p58681ba879)" d="M 4052.5 2563.2 
L 4052.5 1803.46619 
L 4149.375 1803.46619 
L 4149.375 1940.363651 
" style="fill:none;stroke:#2ca02c;stroke-width:1.5;"/>
    <path clip-path="url(#p58681ba879)" d="M 4006 1946.691678 
L 4006 1656.545495 
L 4100.9375 1656.545495 
L 4100.9375 1803.46619 
" style="fill:none;stroke:#2ca02c;stroke-width:1.5;"/>
    <path clip-path="url(#p58681ba879)" d="M 4269.5 2563.2 
L 4269.5 2197.180131 
L 4300.5 2197.180131 
L 4300.5 2563.2 
" style="fill:none;stroke:#2ca02c;stroke-width:1.5;"/>
    <path clip-path="url(#p58681ba879)" d="M 4238.5 2563.2 
L 4238.5 1390.594461 
L 4285 1390.594461 
L 4285 2197.180131 
" style="fill:none;stroke:#2ca02c;stroke-width:1.5;"/>
    <path clip-path="url(#p58681ba879)" d="M 4053.46875 1656.545495 
L 4053.46875 1349.21367 
L 4261.75 1349.21367 
L 4261.75 1390.594461 
" style="fill:none;stroke:#2ca02c;stroke-width:1.5;"/>
    <path clip-path="url(#p58681ba879)" d="M 3920.75 1675.367176 
L 3920.75 1311.407004 
L 4157.609375 1311.407004 
L 4157.609375 1349.21367 
" style="fill:none;stroke:#2ca02c;stroke-width:1.5;"/>
    <path clip-path="url(#p58681ba879)" d="M 4331.5 2563.2 
L 4331.5 1814.869243 
L 4362.5 1814.869243 
L 4362.5 2563.2 
" style="fill:none;stroke:#2ca02c;stroke-width:1.5;"/>
    <path clip-path="url(#p58681ba879)" d="M 4393.5 2563.2 
L 4393.5 2366.484412 
L 4424.5 2366.484412 
L 4424.5 2563.2 
" style="fill:none;stroke:#2ca02c;stroke-width:1.5;"/>
    <path clip-path="url(#p58681ba879)" d="M 4517.5 2563.2 
L 4517.5 2076.664517 
L 4548.5 2076.664517 
L 4548.5 2563.2 
" style="fill:none;stroke:#2ca02c;stroke-width:1.5;"/>
    <path clip-path="url(#p58681ba879)" d="M 4486.5 2563.2 
L 4486.5 1598.753663 
L 4533 1598.753663 
L 4533 2076.664517 
" style="fill:none;stroke:#2ca02c;stroke-width:1.5;"/>
    <path clip-path="url(#p58681ba879)" d="M 4455.5 2563.2 
L 4455.5 1575.104963 
L 4509.75 1575.104963 
L 4509.75 1598.753663 
" style="fill:none;stroke:#2ca02c;stroke-width:1.5;"/>
    <path clip-path="url(#p58681ba879)" d="M 4409 2366.484412 
L 4409 1513.584338 
L 4482.625 1513.584338 
L 4482.625 1575.104963 
" style="fill:none;stroke:#2ca02c;stroke-width:1.5;"/>
    <path clip-path="url(#p58681ba879)" d="M 4347 1814.869243 
L 4347 1242.933589 
L 4445.8125 1242.933589 
L 4445.8125 1513.584338 
" style="fill:none;stroke:#2ca02c;stroke-width:1.5;"/>
    <path clip-path="url(#p58681ba879)" d="M 4039.179688 1311.407004 
L 4039.179688 1224.425582 
L 4396.40625 1224.425582 
L 4396.40625 1242.933589 
" style="fill:none;stroke:#2ca02c;stroke-width:1.5;"/>
    <path clip-path="url(#p58681ba879)" d="M 4703.5 2563.2 
L 4703.5 2364.932252 
L 4734.5 2364.932252 
L 4734.5 2563.2 
" style="fill:none;stroke:#2ca02c;stroke-width:1.5;"/>
    <path clip-path="url(#p58681ba879)" d="M 4672.5 2563.2 
L 4672.5 2212.16794 
L 4719 2212.16794 
L 4719 2364.932252 
" style="fill:none;stroke:#2ca02c;stroke-width:1.5;"/>
    <path clip-path="url(#p58681ba879)" d="M 4641.5 2563.2 
L 4641.5 2148.393422 
L 4695.75 2148.393422 
L 4695.75 2212.16794 
" style="fill:none;stroke:#2ca02c;stroke-width:1.5;"/>
    <path clip-path="url(#p58681ba879)" d="M 4610.5 2563.2 
L 4610.5 2012.595395 
L 4668.625 2012.595395 
L 4668.625 2148.393422 
" style="fill:none;stroke:#2ca02c;stroke-width:1.5;"/>
    <path clip-path="url(#p58681ba879)" d="M 4579.5 2563.2 
L 4579.5 1999.298742 
L 4639.5625 1999.298742 
L 4639.5625 2012.595395 
" style="fill:none;stroke:#2ca02c;stroke-width:1.5;"/>
    <path clip-path="url(#p58681ba879)" d="M 4920.5 2563.2 
L 4920.5 2295.956683 
L 4951.5 2295.956683 
L 4951.5 2563.2 
" style="fill:none;stroke:#2ca02c;stroke-width:1.5;"/>
    <path clip-path="url(#p58681ba879)" d="M 4889.5 2563.2 
L 4889.5 2212.478245 
L 4936 2212.478245 
L 4936 2295.956683 
" style="fill:none;stroke:#2ca02c;stroke-width:1.5;"/>
    <path clip-path="url(#p58681ba879)" d="M 4982.5 2563.2 
L 4982.5 2110.274388 
L 5013.5 2110.274388 
L 5013.5 2563.2 
" style="fill:none;stroke:#2ca02c;stroke-width:1.5;"/>
    <path clip-path="url(#p58681ba879)" d="M 4912.75 2212.478245 
L 4912.75 1670.407094 
L 4998 1670.407094 
L 4998 2110.274388 
" style="fill:none;stroke:#2ca02c;stroke-width:1.5;"/>
    <path clip-path="url(#p58681ba879)" d="M 4858.5 2563.2 
L 4858.5 1641.299598 
L 4955.375 1641.299598 
L 4955.375 1670.407094 
" style="fill:none;stroke:#2ca02c;stroke-width:1.5;"/>
    <path clip-path="url(#p58681ba879)" d="M 4827.5 2563.2 
L 4827.5 1283.736412 
L 4906.9375 1283.736412 
L 4906.9375 1641.299598 
" style="fill:none;stroke:#2ca02c;stroke-width:1.5;"/>
    <path clip-path="url(#p58681ba879)" d="M 4796.5 2563.2 
L 4796.5 1258.190592 
L 4867.21875 1258.190592 
L 4867.21875 1283.736412 
" style="fill:none;stroke:#2ca02c;stroke-width:1.5;"/>
    <path clip-path="url(#p58681ba879)" d="M 4765.5 2563.2 
L 4765.5 1204.806922 
L 4831.859375 1204.806922 
L 4831.859375 1258.190592 
" style="fill:none;stroke:#2ca02c;stroke-width:1.5;"/>
    <path clip-path="url(#p58681ba879)" d="M 4609.53125 1999.298742 
L 4609.53125 1192.791609 
L 4798.679688 1192.791609 
L 4798.679688 1204.806922 
" style="fill:none;stroke:#2ca02c;stroke-width:1.5;"/>
    <path clip-path="url(#p58681ba879)" d="M 4217.792969 1224.425582 
L 4217.792969 1156.220864 
L 4704.105469 1156.220864 
L 4704.105469 1192.791609 
" style="fill:none;stroke:#2ca02c;stroke-width:1.5;"/>
    <path clip-path="url(#p58681ba879)" d="M 3866.5 2563.2 
L 3866.5 1138.488036 
L 4460.949219 1138.488036 
L 4460.949219 1156.220864 
" style="fill:none;stroke:#2ca02c;stroke-width:1.5;"/>
    <path clip-path="url(#p58681ba879)" d="M 3835.5 2563.2 
L 3835.5 1130.356959 
L 4163.724609 1130.356959 
L 4163.724609 1138.488036 
" style="fill:none;stroke:#2ca02c;stroke-width:1.5;"/>
    <path clip-path="url(#p58681ba879)" d="M 3765.75 1593.676887 
L 3765.75 1116.806426 
L 3999.612305 1116.806426 
L 3999.612305 1130.356959 
" style="fill:none;stroke:#2ca02c;stroke-width:1.5;"/>
    <path clip-path="url(#p58681ba879)" d="M 3586.53125 1196.51151 
L 3586.53125 1104.24006 
L 3882.681152 1104.24006 
L 3882.681152 1116.806426 
" style="fill:none;stroke:#2ca02c;stroke-width:1.5;"/>
    <path clip-path="url(#p58681ba879)" d="M 3510 2090.862286 
L 3510 1088.301033 
L 3734.606201 1088.301033 
L 3734.606201 1104.24006 
" style="fill:none;stroke:#2ca02c;stroke-width:1.5;"/>
   </g>
   <g id="LineCollection_3">
    <path clip-path="url(#p58681ba879)" d="M 1014.5 2563.2 
L 1014.5 2325.671084 
L 1045.5 2325.671084 
L 1045.5 2563.2 
" style="fill:none;stroke:#d62728;stroke-width:1.5;"/>
    <path clip-path="url(#p58681ba879)" d="M 983.5 2563.2 
L 983.5 2252.84337 
L 1030 2252.84337 
L 1030 2325.671084 
" style="fill:none;stroke:#d62728;stroke-width:1.5;"/>
    <path clip-path="url(#p58681ba879)" d="M 952.5 2563.2 
L 952.5 1631.239712 
L 1006.75 1631.239712 
L 1006.75 2252.84337 
" style="fill:none;stroke:#d62728;stroke-width:1.5;"/>
    <path clip-path="url(#p58681ba879)" d="M 921.5 2563.2 
L 921.5 1359.313962 
L 979.625 1359.313962 
L 979.625 1631.239712 
" style="fill:none;stroke:#d62728;stroke-width:1.5;"/>
    <path clip-path="url(#p58681ba879)" d="M 5075.5 2563.2 
L 5075.5 1988.081776 
L 5106.5 1988.081776 
L 5106.5 2563.2 
" style="fill:none;stroke:#d62728;stroke-width:1.5;"/>
    <path clip-path="url(#p58681ba879)" d="M 5137.5 2563.2 
L 5137.5 1741.394866 
L 5168.5 1741.394866 
L 5168.5 2563.2 
" style="fill:none;stroke:#d62728;stroke-width:1.5;"/>
    <path clip-path="url(#p58681ba879)" d="M 5091 1988.081776 
L 5091 1085.66464 
L 5153 1085.66464 
L 5153 1741.394866 
" style="fill:none;stroke:#d62728;stroke-width:1.5;"/>
   </g>
   <g id="LineCollection_4">
    <path clip-path="url(#p58681ba879)" d="M 1107.5 2563.2 
L 1107.5 1788.764596 
L 1138.5 1788.764596 
L 1138.5 2563.2 
" style="fill:none;stroke:#9467bd;stroke-width:1.5;"/>
    <path clip-path="url(#p58681ba879)" d="M 1076.5 2563.2 
L 1076.5 1675.822893 
L 1123 1675.822893 
L 1123 1788.764596 
" style="fill:none;stroke:#9467bd;stroke-width:1.5;"/>
   </g>
   <g id="LineCollection_5">
    <path clip-path="url(#p58681ba879)" d="M 1231.5 2563.2 
L 1231.5 2336.511971 
L 1262.5 2336.511971 
L 1262.5 2563.2 
" style="fill:none;stroke:#8c564b;stroke-width:1.5;"/>
    <path clip-path="url(#p58681ba879)" d="M 1200.5 2563.2 
L 1200.5 1870.835614 
L 1247 1870.835614 
L 1247 2336.511971 
" style="fill:none;stroke:#8c564b;stroke-width:1.5;"/>
    <path clip-path="url(#p58681ba879)" d="M 1293.5 2563.2 
L 1293.5 1785.016792 
L 1324.5 1785.016792 
L 1324.5 2563.2 
" style="fill:none;stroke:#8c564b;stroke-width:1.5;"/>
    <path clip-path="url(#p58681ba879)" d="M 1355.5 2563.2 
L 1355.5 1859.506637 
L 1386.5 1859.506637 
L 1386.5 2563.2 
" style="fill:none;stroke:#8c564b;stroke-width:1.5;"/>
    <path clip-path="url(#p58681ba879)" d="M 1448.5 2563.2 
L 1448.5 2253.027514 
L 1479.5 2253.027514 
L 1479.5 2563.2 
" style="fill:none;stroke:#8c564b;stroke-width:1.5;"/>
    <path clip-path="url(#p58681ba879)" d="M 1417.5 2563.2 
L 1417.5 1780.984659 
L 1464 1780.984659 
L 1464 2253.027514 
" style="fill:none;stroke:#8c564b;stroke-width:1.5;"/>
    <path clip-path="url(#p58681ba879)" d="M 1371 1859.506637 
L 1371 1770.251672 
L 1440.75 1770.251672 
L 1440.75 1780.984659 
" style="fill:none;stroke:#8c564b;stroke-width:1.5;"/>
    <path clip-path="url(#p58681ba879)" d="M 1309 1785.016792 
L 1309 1657.655093 
L 1405.875 1657.655093 
L 1405.875 1770.251672 
" style="fill:none;stroke:#8c564b;stroke-width:1.5;"/>
    <path clip-path="url(#p58681ba879)" d="M 1223.75 1870.835614 
L 1223.75 1653.987304 
L 1357.4375 1653.987304 
L 1357.4375 1657.655093 
" style="fill:none;stroke:#8c564b;stroke-width:1.5;"/>
    <path clip-path="url(#p58681ba879)" d="M 1169.5 2563.2 
L 1169.5 1600.188992 
L 1290.59375 1600.188992 
L 1290.59375 1653.987304 
" style="fill:none;stroke:#8c564b;stroke-width:1.5;"/>
   </g>
   <g id="LineCollection_6">
    <path clip-path="url(#p58681ba879)" d="M 1541.5 2563.2 
L 1541.5 2537.661928 
L 1572.5 2537.661928 
L 1572.5 2563.2 
" style="fill:none;stroke:#e377c2;stroke-width:1.5;"/>
   </g>
   <g id="LineCollection_7">
    <path clip-path="url(#p58681ba879)" d="M 1603.5 2563.2 
L 1603.5 2153.140149 
L 1634.5 2153.140149 
L 1634.5 2563.2 
" style="fill:none;stroke:#7f7f7f;stroke-width:1.5;"/>
    <path clip-path="url(#p58681ba879)" d="M 1696.5 2563.2 
L 1696.5 1959.725305 
L 1727.5 1959.725305 
L 1727.5 2563.2 
" style="fill:none;stroke:#7f7f7f;stroke-width:1.5;"/>
    <path clip-path="url(#p58681ba879)" d="M 1665.5 2563.2 
L 1665.5 1816.245459 
L 1712 1816.245459 
L 1712 1959.725305 
" style="fill:none;stroke:#7f7f7f;stroke-width:1.5;"/>
    <path clip-path="url(#p58681ba879)" d="M 1619 2153.140149 
L 1619 1614.898005 
L 1688.75 1614.898005 
L 1688.75 1816.245459 
" style="fill:none;stroke:#7f7f7f;stroke-width:1.5;"/>
    <path clip-path="url(#p58681ba879)" d="M 1820.5 2563.2 
L 1820.5 1796.272812 
L 1851.5 1796.272812 
L 1851.5 2563.2 
" style="fill:none;stroke:#7f7f7f;stroke-width:1.5;"/>
    <path clip-path="url(#p58681ba879)" d="M 1789.5 2563.2 
L 1789.5 1722.665481 
L 1836 1722.665481 
L 1836 1796.272812 
" style="fill:none;stroke:#7f7f7f;stroke-width:1.5;"/>
    <path clip-path="url(#p58681ba879)" d="M 1882.5 2563.2 
L 1882.5 1690.291184 
L 1913.5 1690.291184 
L 1913.5 2563.2 
" style="fill:none;stroke:#7f7f7f;stroke-width:1.5;"/>
    <path clip-path="url(#p58681ba879)" d="M 1812.75 1722.665481 
L 1812.75 1411.086596 
L 1898 1411.086596 
L 1898 1690.291184 
" style="fill:none;stroke:#7f7f7f;stroke-width:1.5;"/>
    <path clip-path="url(#p58681ba879)" d="M 1758.5 2563.2 
L 1758.5 1368.945847 
L 1855.375 1368.945847 
L 1855.375 1411.086596 
" style="fill:none;stroke:#7f7f7f;stroke-width:1.5;"/>
    <path clip-path="url(#p58681ba879)" d="M 1653.875 1614.898005 
L 1653.875 1364.466469 
L 1806.9375 1364.466469 
L 1806.9375 1368.945847 
" style="fill:none;stroke:#7f7f7f;stroke-width:1.5;"/>
   </g>
   <g id="LineCollection_8">
    <path clip-path="url(#p58681ba879)" d="M 1975.5 2563.2 
L 1975.5 2562.818179 
L 2006.5 2562.818179 
L 2006.5 2563.2 
" style="fill:none;stroke:#bcbd22;stroke-width:1.5;"/>
    <path clip-path="url(#p58681ba879)" d="M 1944.5 2563.2 
L 1944.5 2046.308593 
L 1991 2046.308593 
L 1991 2562.818179 
" style="fill:none;stroke:#bcbd22;stroke-width:1.5;"/>
   </g>
   <g id="LineCollection_9">
    <path clip-path="url(#p58681ba879)" d="M 2068.5 2563.2 
L 2068.5 2223.508792 
L 2099.5 2223.508792 
L 2099.5 2563.2 
" style="fill:none;stroke:#17becf;stroke-width:1.5;"/>
    <path clip-path="url(#p58681ba879)" d="M 2037.5 2563.2 
L 2037.5 2211.676978 
L 2084 2211.676978 
L 2084 2223.508792 
" style="fill:none;stroke:#17becf;stroke-width:1.5;"/>
    <path clip-path="url(#p58681ba879)" d="M 2130.5 2563.2 
L 2130.5 2109.604222 
L 2161.5 2109.604222 
L 2161.5 2563.2 
" style="fill:none;stroke:#17becf;stroke-width:1.5;"/>
    <path clip-path="url(#p58681ba879)" d="M 2223.5 2563.2 
L 2223.5 2349.050278 
L 2254.5 2349.050278 
L 2254.5 2563.2 
" style="fill:none;stroke:#17becf;stroke-width:1.5;"/>
    <path clip-path="url(#p58681ba879)" d="M 2192.5 2563.2 
L 2192.5 1936.464847 
L 2239 1936.464847 
L 2239 2349.050278 
" style="fill:none;stroke:#17becf;stroke-width:1.5;"/>
    <path clip-path="url(#p58681ba879)" d="M 2146 2109.604222 
L 2146 1756.403429 
L 2215.75 1756.403429 
L 2215.75 1936.464847 
" style="fill:none;stroke:#17becf;stroke-width:1.5;"/>
    <path clip-path="url(#p58681ba879)" d="M 2347.5 2563.2 
L 2347.5 2562.777307 
L 2378.5 2562.777307 
L 2378.5 2563.2 
" style="fill:none;stroke:#17becf;stroke-width:1.5;"/>
    <path clip-path="url(#p58681ba879)" d="M 2409.5 2563.2 
L 2409.5 2251.064974 
L 2440.5 2251.064974 
L 2440.5 2563.2 
" style="fill:none;stroke:#17becf;stroke-width:1.5;"/>
    <path clip-path="url(#p58681ba879)" d="M 2363 2562.777307 
L 2363 2173.881287 
L 2425 2173.881287 
L 2425 2251.064974 
" style="fill:none;stroke:#17becf;stroke-width:1.5;"/>
    <path clip-path="url(#p58681ba879)" d="M 2316.5 2563.2 
L 2316.5 1693.908036 
L 2394 1693.908036 
L 2394 2173.881287 
" style="fill:none;stroke:#17becf;stroke-width:1.5;"/>
    <path clip-path="url(#p58681ba879)" d="M 2285.5 2563.2 
L 2285.5 1675.852803 
L 2355.25 1675.852803 
L 2355.25 1693.908036 
" style="fill:none;stroke:#17becf;stroke-width:1.5;"/>
    <path clip-path="url(#p58681ba879)" d="M 2502.5 2563.2 
L 2502.5 1672.846616 
L 2533.5 1672.846616 
L 2533.5 2563.2 
" style="fill:none;stroke:#17becf;stroke-width:1.5;"/>
    <path clip-path="url(#p58681ba879)" d="M 2471.5 2563.2 
L 2471.5 1657.43009 
L 2518 1657.43009 
L 2518 1672.846616 
" style="fill:none;stroke:#17becf;stroke-width:1.5;"/>
    <path clip-path="url(#p58681ba879)" d="M 2320.375 1675.852803 
L 2320.375 1612.501079 
L 2494.75 1612.501079 
L 2494.75 1657.43009 
" style="fill:none;stroke:#17becf;stroke-width:1.5;"/>
    <path clip-path="url(#p58681ba879)" d="M 2180.875 1756.403429 
L 2180.875 1559.807134 
L 2407.5625 1559.807134 
L 2407.5625 1612.501079 
" style="fill:none;stroke:#17becf;stroke-width:1.5;"/>
    <path clip-path="url(#p58681ba879)" d="M 2595.5 2563.2 
L 2595.5 2350.296234 
L 2626.5 2350.296234 
L 2626.5 2563.2 
" style="fill:none;stroke:#17becf;stroke-width:1.5;"/>
    <path clip-path="url(#p58681ba879)" d="M 2564.5 2563.2 
L 2564.5 1693.986689 
L 2611 1693.986689 
L 2611 2350.296234 
" style="fill:none;stroke:#17becf;stroke-width:1.5;"/>
    <path clip-path="url(#p58681ba879)" d="M 2719.5 2563.2 
L 2719.5 2063.421974 
L 2750.5 2063.421974 
L 2750.5 2563.2 
" style="fill:none;stroke:#17becf;stroke-width:1.5;"/>
    <path clip-path="url(#p58681ba879)" d="M 2688.5 2563.2 
L 2688.5 1925.541586 
L 2735 1925.541586 
L 2735 2063.421974 
" style="fill:none;stroke:#17becf;stroke-width:1.5;"/>
    <path clip-path="url(#p58681ba879)" d="M 2657.5 2563.2 
L 2657.5 1555.455181 
L 2711.75 1555.455181 
L 2711.75 1925.541586 
" style="fill:none;stroke:#17becf;stroke-width:1.5;"/>
    <path clip-path="url(#p58681ba879)" d="M 2587.75 1693.986689 
L 2587.75 1400.378771 
L 2684.625 1400.378771 
L 2684.625 1555.455181 
" style="fill:none;stroke:#17becf;stroke-width:1.5;"/>
    <path clip-path="url(#p58681ba879)" d="M 2294.21875 1559.807134 
L 2294.21875 1275.522501 
L 2636.1875 1275.522501 
L 2636.1875 1400.378771 
" style="fill:none;stroke:#17becf;stroke-width:1.5;"/>
    <path clip-path="url(#p58681ba879)" d="M 2060.75 2211.676978 
L 2060.75 1270.546074 
L 2465.203125 1270.546074 
L 2465.203125 1275.522501 
" style="fill:none;stroke:#17becf;stroke-width:1.5;"/>
    <path clip-path="url(#p58681ba879)" d="M 2781.5 2563.2 
L 2781.5 2311.753634 
L 2812.5 2311.753634 
L 2812.5 2563.2 
" style="fill:none;stroke:#17becf;stroke-width:1.5;"/>
    <path clip-path="url(#p58681ba879)" d="M 2874.5 2563.2 
L 2874.5 2139.101527 
L 2905.5 2139.101527 
L 2905.5 2563.2 
" style="fill:none;stroke:#17becf;stroke-width:1.5;"/>
    <path clip-path="url(#p58681ba879)" d="M 2843.5 2563.2 
L 2843.5 2019.92582 
L 2890 2019.92582 
L 2890 2139.101527 
" style="fill:none;stroke:#17becf;stroke-width:1.5;"/>
    <path clip-path="url(#p58681ba879)" d="M 2967.5 2563.2 
L 2967.5 1655.159825 
L 2998.5 1655.159825 
L 2998.5 2563.2 
" style="fill:none;stroke:#17becf;stroke-width:1.5;"/>
    <path clip-path="url(#p58681ba879)" d="M 2936.5 2563.2 
L 2936.5 1626.944205 
L 2983 1626.944205 
L 2983 1655.159825 
" style="fill:none;stroke:#17becf;stroke-width:1.5;"/>
    <path clip-path="url(#p58681ba879)" d="M 2866.75 2019.92582 
L 2866.75 1619.455224 
L 2959.75 1619.455224 
L 2959.75 1626.944205 
" style="fill:none;stroke:#17becf;stroke-width:1.5;"/>
    <path clip-path="url(#p58681ba879)" d="M 2797 2311.753634 
L 2797 1505.29539 
L 2913.25 1505.29539 
L 2913.25 1619.455224 
" style="fill:none;stroke:#17becf;stroke-width:1.5;"/>
    <path clip-path="url(#p58681ba879)" d="M 3060.5 2563.2 
L 3060.5 2112.030365 
L 3091.5 2112.030365 
L 3091.5 2563.2 
" style="fill:none;stroke:#17becf;stroke-width:1.5;"/>
    <path clip-path="url(#p58681ba879)" d="M 3122.5 2563.2 
L 3122.5 1825.637162 
L 3153.5 1825.637162 
L 3153.5 2563.2 
" style="fill:none;stroke:#17becf;stroke-width:1.5;"/>
    <path clip-path="url(#p58681ba879)" d="M 3076 2112.030365 
L 3076 1773.970426 
L 3138 1773.970426 
L 3138 1825.637162 
" style="fill:none;stroke:#17becf;stroke-width:1.5;"/>
    <path clip-path="url(#p58681ba879)" d="M 3029.5 2563.2 
L 3029.5 1711.485687 
L 3107 1711.485687 
L 3107 1773.970426 
" style="fill:none;stroke:#17becf;stroke-width:1.5;"/>
    <path clip-path="url(#p58681ba879)" d="M 3215.5 2563.2 
L 3215.5 1768.349155 
L 3246.5 1768.349155 
L 3246.5 2563.2 
" style="fill:none;stroke:#17becf;stroke-width:1.5;"/>
    <path clip-path="url(#p58681ba879)" d="M 3184.5 2563.2 
L 3184.5 1652.664827 
L 3231 1652.664827 
L 3231 1768.349155 
" style="fill:none;stroke:#17becf;stroke-width:1.5;"/>
    <path clip-path="url(#p58681ba879)" d="M 3068.25 1711.485687 
L 3068.25 1308.516635 
L 3207.75 1308.516635 
L 3207.75 1652.664827 
" style="fill:none;stroke:#17becf;stroke-width:1.5;"/>
    <path clip-path="url(#p58681ba879)" d="M 2855.125 1505.29539 
L 2855.125 1214.78105 
L 3138 1214.78105 
L 3138 1308.516635 
" style="fill:none;stroke:#17becf;stroke-width:1.5;"/>
    <path clip-path="url(#p58681ba879)" d="M 2262.976562 1270.546074 
L 2262.976562 1183.374511 
L 2996.5625 1183.374511 
L 2996.5625 1214.78105 
" style="fill:none;stroke:#17becf;stroke-width:1.5;"/>
   </g>
   <g id="LineCollection_10">
    <path clip-path="url(#p58681ba879)" d="M 1510.5 2563.2 
L 1510.5 1055.912375 
L 1557 1055.912375 
L 1557 2537.661928 
" style="fill:none;stroke:#1f77b4;stroke-width:1.5;"/>
    <path clip-path="url(#p58681ba879)" d="M 1967.75 2046.308593 
L 1967.75 1071.138698 
L 2629.769531 1071.138698 
L 2629.769531 1183.374511 
" style="fill:none;stroke:#1f77b4;stroke-width:1.5;"/>
    <path clip-path="url(#p58681ba879)" d="M 3330.78125 1373.125367 
L 3330.78125 1003.594761 
L 3622.303101 1003.594761 
L 3622.303101 1088.301033 
" style="fill:none;stroke:#1f77b4;stroke-width:1.5;"/>
    <path clip-path="url(#p58681ba879)" d="M 2298.759766 1071.138698 
L 2298.759766 1002.973927 
L 3476.542175 1002.973927 
L 3476.542175 1003.594761 
" style="fill:none;stroke:#1f77b4;stroke-width:1.5;"/>
    <path clip-path="url(#p58681ba879)" d="M 1730.40625 1364.466469 
L 1730.40625 991.961656 
L 2887.65097 991.961656 
L 2887.65097 1002.973927 
" style="fill:none;stroke:#1f77b4;stroke-width:1.5;"/>
    <path clip-path="url(#p58681ba879)" d="M 1533.75 1055.912375 
L 1533.75 962.66268 
L 2309.02861 962.66268 
L 2309.02861 991.961656 
" style="fill:none;stroke:#1f77b4;stroke-width:1.5;"/>
    <path clip-path="url(#p58681ba879)" d="M 5044.5 2563.2 
L 5044.5 943.713838 
L 5122 943.713838 
L 5122 1085.66464 
" style="fill:none;stroke:#1f77b4;stroke-width:1.5;"/>
    <path clip-path="url(#p58681ba879)" d="M 1921.389305 962.66268 
L 1921.389305 933.176292 
L 5083.25 933.176292 
L 5083.25 943.713838 
" style="fill:none;stroke:#1f77b4;stroke-width:1.5;"/>
    <path clip-path="url(#p58681ba879)" d="M 1230.046875 1600.188992 
L 1230.046875 896.365939 
L 3502.319653 896.365939 
L 3502.319653 933.176292 
" style="fill:none;stroke:#1f77b4;stroke-width:1.5;"/>
    <path clip-path="url(#p58681ba879)" d="M 1099.75 1675.822893 
L 1099.75 876.133732 
L 2366.183264 876.133732 
L 2366.183264 896.365939 
" style="fill:none;stroke:#1f77b4;stroke-width:1.5;"/>
    <path clip-path="url(#p58681ba879)" d="M 950.5625 1359.313962 
L 950.5625 810.639644 
L 1732.966632 810.639644 
L 1732.966632 876.133732 
" style="fill:none;stroke:#1f77b4;stroke-width:1.5;"/>
    <path clip-path="url(#p58681ba879)" d="M 851.75 2011.244468 
L 851.75 647.411593 
L 1341.764566 647.411593 
L 1341.764566 810.639644 
" style="fill:none;stroke:#1f77b4;stroke-width:1.5;"/>
    <path clip-path="url(#p58681ba879)" d="M 782 2311.533035 
L 782 633.30064 
L 1096.757283 633.30064 
L 1096.757283 647.411593 
" style="fill:none;stroke:#1f77b4;stroke-width:1.5;"/>
    <path clip-path="url(#p58681ba879)" d="M 735.5 2563.2 
L 735.5 451.2 
L 939.378641 451.2 
L 939.378641 633.30064 
" style="fill:none;stroke:#1f77b4;stroke-width:1.5;"/>
   </g>
   <g id="patch_3">
    <path d="M 720 2563.2 
L 720 345.6 
" style="fill:none;stroke:#000000;stroke-linecap:square;stroke-linejoin:miter;stroke-width:0.8;"/>
   </g>
   <g id="patch_4">
    <path d="M 5184 2563.2 
L 5184 345.6 
" style="fill:none;stroke:#000000;stroke-linecap:square;stroke-linejoin:miter;stroke-width:0.8;"/>
   </g>
   <g id="patch_5">
    <path d="M 720 2563.2 
L 5184 2563.2 
" style="fill:none;stroke:#000000;stroke-linecap:square;stroke-linejoin:miter;stroke-width:0.8;"/>
   </g>
   <g id="patch_6">
    <path d="M 720 345.6 
L 5184 345.6 
" style="fill:none;stroke:#000000;stroke-linecap:square;stroke-linejoin:miter;stroke-width:0.8;"/>
   </g>
  </g>
 </g>
 <defs>
  <clipPath id="p58681ba879">
   <rect height="2217.6" width="4464" x="720" y="345.6"/>
  </clipPath>
 </defs>
</svg>
